<svg width="282" height="298" viewBox="0 0 282 298" fill="none" xmlns="http://www.w3.org/2000/svg">
<path d="M139.178 284.392L131.775 283.643L122.716 272.779L121.719 282.625L115.155 281.96L116.908 264.642L123.519 265.311L133.304 276.907L134.366 266.409L140.931 267.074L139.178 284.392Z" fill="#E8AF5A"/>
<path d="M107.003 279.933L88.7599 273.773L90.1222 269.738L102.159 273.803L102.855 271.741L91.0622 267.759L92.4169 263.747L104.21 267.729L104.973 265.468L92.7593 261.344L94.1515 257.221L112.572 263.441L107.003 279.933Z" fill="#E8AF5A"/>
<path d="M78.832 248.74L85.5554 253.248L81.4959 271.484L75.3555 267.367L78.4694 255.624L69.1761 263.223L62.9579 259.053L66.3174 247.7L56.8368 254.949L51.1821 251.157L66.5121 240.478L72.9052 244.765L69.7928 255.918L78.832 248.74Z" fill="#E8AF5A"/>
<path d="M38.5706 236.951L34.632 231.6L44.6378 224.236L37.4818 214.513L41.4955 211.559L52.59 226.633L38.5706 236.951Z" fill="#E8AF5A"/>
<path d="M18.1523 204.304L17.7329 203.339C17.1178 201.922 16.6588 200.591 16.3558 199.345C16.0324 198.091 15.8571 197.003 15.8302 196.079C15.7827 195.147 15.8605 194.289 16.0636 193.503C16.2461 192.71 16.4918 192.042 16.8005 191.5C17.1092 190.958 17.4919 190.469 17.9485 190.032C18.399 189.581 18.8336 189.231 19.2522 188.981C19.6647 188.717 20.1141 188.479 20.6005 188.268L21.2444 187.989C21.7308 187.777 22.2113 187.611 22.6859 187.49C23.1542 187.355 23.714 187.273 24.3652 187.246C24.9958 187.21 25.6217 187.261 26.243 187.399C26.8437 187.53 27.5034 187.796 28.2222 188.198C28.941 188.6 29.6286 189.126 30.285 189.776C30.9415 190.426 31.6175 191.298 32.3129 192.39C33.0165 193.462 33.6789 194.713 34.3002 196.144L34.7196 197.11C35.3409 198.54 35.8061 199.886 36.1153 201.146C36.4326 202.386 36.6078 203.474 36.641 204.412C36.6679 205.336 36.583 206.197 36.3861 206.997C36.1892 207.797 35.9364 208.468 35.6277 209.01C35.2985 209.544 34.9087 210.036 34.4582 210.487C33.9872 210.93 33.5455 211.283 33.1331 211.547C32.7144 211.797 32.2618 212.027 31.7754 212.239L31.1316 212.518C30.6452 212.73 30.1678 212.903 29.6994 213.038C29.2248 213.159 28.6722 213.238 28.0416 213.274C27.4047 213.295 26.7859 213.241 26.1852 213.11C25.5783 212.966 24.9226 212.689 24.2181 212.281C23.4994 211.879 22.8189 211.35 22.1768 210.693C21.5141 210.029 20.8381 209.158 20.1489 208.08C19.4391 206.993 18.7736 205.735 18.1523 204.304ZM23.7912 194.382L23.4907 194.512C23.0186 194.717 22.6195 194.993 22.2935 195.338C21.9531 195.69 21.6799 196.157 21.4738 196.74C21.2615 197.308 21.2148 198.043 21.3338 198.944C21.4529 199.844 21.7547 200.852 22.2393 201.968C22.7363 203.113 23.2733 204.036 23.8501 204.738C24.427 205.44 24.9955 205.907 25.5557 206.14C26.116 206.373 26.6408 206.485 27.1303 206.476C27.5992 206.46 28.0698 206.349 28.5419 206.144L28.7994 206.032C29.2715 205.827 29.6849 205.545 30.0396 205.187C30.3799 204.835 30.6706 204.369 30.9115 203.788C31.1381 203.214 31.1991 202.473 31.0944 201.566C30.9834 200.645 30.6857 199.627 30.201 198.511C29.7164 197.395 29.1857 196.486 28.6089 195.784C28.0115 195.074 27.4255 194.606 26.851 194.379C26.2764 194.153 25.7444 194.044 25.255 194.052C24.7512 194.067 24.2633 194.177 23.7912 194.382Z" fill="#E8AF5A"/>
<path d="M26.3258 168.47L26.4707 169.371C26.7952 171.388 26.8798 173.191 26.7247 174.78C26.567 176.354 26.2637 177.611 25.8148 178.552C25.3504 179.496 24.7523 180.295 24.0203 180.95C23.2883 181.605 22.5882 182.065 21.92 182.33C21.2518 182.596 20.5404 182.789 19.7858 182.911L19.1159 183.018C18.346 183.142 17.611 183.189 16.9111 183.16C16.2088 183.115 15.4163 182.903 14.5338 182.523C13.6359 182.146 12.8351 181.588 12.1316 180.848C11.4102 180.095 10.7344 178.987 10.1041 177.525C9.45604 176.049 8.96726 174.287 8.63782 172.239L8.49291 171.338C8.26255 169.906 8.1444 168.582 8.13846 167.367C8.13005 166.136 8.20774 165.096 8.37153 164.249C8.53284 163.385 8.77185 162.612 9.08856 161.929C9.38739 161.234 9.71622 160.675 10.075 160.254C10.4339 159.833 10.8346 159.476 11.2773 159.184C11.7022 158.879 12.0944 158.665 12.4541 158.544C12.8113 158.408 13.167 158.311 13.5212 158.254L13.8215 158.206L14.9176 165.02C13.2463 165.826 12.6719 167.854 13.1946 171.103C13.8113 174.938 15.4595 176.64 18.1391 176.209L18.4163 176.164C18.9244 176.082 19.3959 175.92 19.8307 175.676C20.2629 175.417 20.6702 175.051 21.0523 174.579C21.4321 174.091 21.6896 173.434 21.8251 172.606C21.9581 171.763 21.9367 170.795 21.7608 169.702C21.6072 168.747 21.3875 167.921 21.1017 167.225C20.8005 166.531 20.5123 166.016 20.2373 165.681C19.9623 165.346 19.6432 165.082 19.2802 164.887C18.9172 164.693 18.6626 164.584 18.5166 164.56C18.3706 164.536 18.2092 164.515 18.0323 164.496L16.94 157.704L17.3095 157.645C17.8331 157.561 18.3845 157.551 18.9637 157.616C19.5274 157.683 20.1979 157.923 20.9751 158.335C21.7369 158.75 22.4465 159.331 23.1039 160.078C23.7433 160.812 24.3615 161.906 24.9585 163.358C25.5529 164.795 26.0087 166.499 26.3258 168.47Z" fill="#E8AF5A"/>
<path d="M18.0879 137.75L11.8733 140.159L17.6009 143.508L18.0879 137.75ZM25.5155 134.879L22.6036 135.995L21.7657 145.903L24.4509 147.469L23.8831 154.183L7.26356 144.137L8.01669 135.231L26.1287 127.629L25.5155 134.879Z" fill="#E8AF5A"/>
<path d="M29.1807 118.13L17.1396 114.228L14.8244 121.373L10.3062 119.909L16.985 99.2985L21.5032 100.763L19.188 107.907L31.229 111.809L29.1807 118.13Z" fill="#E8AF5A"/>
<path d="M23.1263 87.2935L38.6435 95.1813L35.6432 101.084L20.1259 93.1958L23.1263 87.2935Z" fill="#E8AF5A"/>
<path d="M33.4709 70.5551L34.105 69.7145C35.0349 68.4818 35.9675 67.4269 36.9027 66.5498C37.8348 65.6508 38.6961 64.9622 39.4867 64.484C40.2742 63.984 41.0598 63.629 41.8434 63.419C42.6239 63.1872 43.3261 63.0722 43.95 63.0739C44.5739 63.0757 45.1882 63.1678 45.7929 63.3504C46.407 63.5206 46.9258 63.7264 47.3494 63.9678C47.7824 64.1967 48.2105 64.4709 48.6339 64.7902L49.1943 65.2129C49.6176 65.5323 49.9988 65.8687 50.3379 66.2222C50.6863 66.5632 51.0329 67.0102 51.3776 67.5633C51.7193 68.0946 51.9829 68.6647 52.1684 69.2735C52.3508 69.8605 52.444 70.5657 52.4479 71.3893C52.4519 72.2129 52.3325 73.0704 52.0898 73.9619C51.8471 74.8534 51.4216 75.8708 50.8132 77.014C50.2267 78.1541 49.4638 79.3468 48.5244 80.592L47.8904 81.4325C46.9511 82.6777 46.0091 83.7451 45.0645 84.6346C44.1418 85.5211 43.2804 86.2097 42.4805 86.7004C41.6899 87.1786 40.8981 87.5289 40.1051 87.7513C39.3122 87.9737 38.6037 88.084 37.9798 88.0823C37.3528 88.0587 36.7323 87.9618 36.1182 87.7917C35.5011 87.5996 34.9761 87.3892 34.5431 87.1602C34.1195 86.9189 33.696 86.6385 33.2726 86.3191L32.7123 85.8964C32.2889 85.577 31.903 85.2469 31.5546 84.9059C31.2155 84.5524 30.8752 84.11 30.5335 83.5788C30.2012 83.035 29.9439 82.4697 29.7615 81.8827C29.5884 81.2833 29.5062 80.5765 29.5147 79.7623C29.5107 78.9387 29.6363 78.0859 29.8915 77.2038C30.1435 76.2998 30.5691 75.2824 31.1681 74.1517C31.764 72.9991 32.5316 71.8003 33.4709 70.5551ZM44.8837 70.5775L44.6222 70.3802C44.2113 70.0702 43.7752 69.8584 43.3138 69.7448C42.84 69.6219 42.2987 69.6141 41.6901 69.7216C41.0909 69.8166 40.4287 70.1377 39.7034 70.6847C38.9782 71.2317 38.2492 71.9909 37.5165 72.9621C36.7651 73.9583 36.2259 74.8802 35.8991 75.7278C35.5723 76.5754 35.4455 77.3003 35.5187 77.9026C35.5919 78.5049 35.7527 79.0169 36.0011 79.4388C36.2464 79.8387 36.5746 80.1937 36.9855 80.5037L37.2096 80.6728C37.6205 80.9828 38.0691 81.2039 38.5554 81.3363C39.0292 81.4593 39.5782 81.4826 40.2023 81.4064C40.814 81.3208 41.4887 81.0091 42.2264 80.4715C42.9735 79.9214 43.7134 79.1607 44.4461 78.1895C45.1787 77.2182 45.7085 76.3088 46.0353 75.4612C46.359 74.5917 46.478 73.8512 46.3924 73.2395C46.3068 72.6278 46.1397 72.1111 45.8914 71.6893C45.6305 71.258 45.2946 70.8874 44.8837 70.5775Z" fill="#E8AF5A"/>
<path d="M47.7431 54.06L53.5549 49.4148L67.6292 50.835L61.4501 43.1043L66.604 38.9849L77.472 52.5823L72.2816 56.7309L57.177 55.2955L63.765 63.538L58.6112 67.6573L47.7431 54.06Z" fill="#E8AF5A"/>
<path d="M150.399 17.0948L157.738 18.3197L166.078 29.7455L167.707 19.9838L174.215 21.0701L171.349 38.2395L164.795 37.1455L155.778 24.9427L154.041 35.3505L147.533 34.2642L150.399 17.0948Z" fill="#E8AF5A"/>
<path d="M182.219 23.6188L200.027 30.9423L198.408 34.8804L186.658 30.0485L185.831 32.0609L197.342 36.7949L195.732 40.7114L184.22 35.9774L183.312 38.1845L195.235 43.0876L193.58 47.1123L175.599 39.7176L182.219 23.6188Z" fill="#E8AF5A"/>
<path d="M208.321 56.5635L201.902 51.6309L207.129 33.6943L212.991 38.1993L209.126 49.7173L218.89 42.7328L224.827 47.2947L220.742 58.4078L230.67 51.7854L236.069 55.934L220.082 65.602L213.979 60.9117L217.804 49.9828L208.321 56.5635Z" fill="#E8AF5A"/>
<path d="M247.739 70.9231L251.324 76.5174L240.864 83.221L247.379 93.3853L243.183 96.0743L233.083 80.3157L247.739 70.9231Z" fill="#E8AF5A"/>
<path d="M266.01 104.818L266.366 105.809C266.889 107.262 267.261 108.62 267.483 109.883C267.725 111.155 267.83 112.253 267.797 113.176C267.785 114.109 267.652 114.961 267.398 115.731C267.165 116.511 266.877 117.162 266.534 117.683C266.191 118.204 265.777 118.668 265.293 119.074C264.815 119.495 264.359 119.816 263.925 120.039C263.496 120.276 263.032 120.484 262.533 120.663L261.873 120.901C261.374 121.08 260.883 121.215 260.402 121.305C259.926 121.41 259.362 121.455 258.71 121.441C258.079 121.436 257.458 121.345 256.846 121.167C256.255 120.998 255.614 120.69 254.923 120.242C254.232 119.795 253.579 119.225 252.966 118.534C252.353 117.843 251.734 116.93 251.111 115.795C250.478 114.68 249.898 113.388 249.37 111.921L249.014 110.93C248.486 109.462 248.108 108.09 247.881 106.812C247.644 105.555 247.54 104.457 247.567 103.519C247.6 102.595 247.74 101.741 247.988 100.956C248.236 100.17 248.531 99.5172 248.874 98.996C249.237 98.4843 249.658 98.018 250.137 97.5973C250.635 97.186 251.099 96.8618 251.528 96.6248C251.961 96.4025 252.428 96.2016 252.927 96.0222L253.587 95.7847C254.086 95.6053 254.574 95.4631 255.05 95.3582C255.532 95.268 256.088 95.2253 256.72 95.2302C257.357 95.2499 257.971 95.344 258.562 95.5127C259.158 95.6961 259.795 96.0142 260.471 96.467C261.163 96.9146 261.807 97.4866 262.406 98.1831C263.024 98.8889 263.643 99.802 264.261 100.922C264.899 102.052 265.482 103.351 266.01 104.818ZM259.743 114.357L260.052 114.246C260.536 114.072 260.952 113.823 261.3 113.499C261.662 113.17 261.965 112.721 262.208 112.153C262.456 111.599 262.55 110.869 262.49 109.963C262.429 109.057 262.193 108.031 261.781 106.886C261.359 105.712 260.883 104.756 260.352 104.018C259.822 103.281 259.285 102.778 258.74 102.51C258.196 102.241 257.68 102.095 257.191 102.072C256.722 102.059 256.245 102.139 255.761 102.313L255.497 102.408C255.012 102.582 254.582 102.836 254.205 103.171C253.842 103.5 253.522 103.947 253.244 104.511C252.981 105.069 252.872 105.805 252.919 106.716C252.97 107.643 253.201 108.678 253.613 109.823C254.025 110.968 254.496 111.909 255.026 112.647C255.576 113.394 256.131 113.899 256.69 114.162C257.248 114.425 257.772 114.568 258.261 114.591C258.765 114.609 259.259 114.531 259.743 114.357Z" fill="#E8AF5A"/>
<path d="M255.543 140.051L255.456 139.143C255.262 137.109 255.294 135.304 255.551 133.728C255.81 132.168 256.194 130.933 256.703 130.023C257.227 129.111 257.875 128.352 258.648 127.746C259.421 127.14 260.149 126.726 260.833 126.504C261.517 126.282 262.239 126.135 263 126.062L263.675 125.998C264.452 125.924 265.188 125.924 265.885 125.999C266.583 126.089 267.36 126.352 268.216 126.787C269.088 127.221 269.851 127.83 270.505 128.614C271.177 129.412 271.78 130.561 272.314 132.061C272.866 133.575 273.24 135.365 273.437 137.43L273.523 138.339C273.661 139.783 273.693 141.111 273.621 142.325C273.55 143.554 273.406 144.586 273.187 145.421C272.971 146.272 272.682 147.028 272.322 147.689C271.979 148.365 271.615 148.901 271.23 149.298C270.845 149.695 270.422 150.025 269.961 150.288C269.518 150.565 269.112 150.753 268.746 150.85C268.38 150.964 268.019 151.037 267.662 151.071L267.359 151.1L266.705 144.229C268.425 143.533 269.128 141.546 268.816 138.27C268.448 134.404 266.913 132.599 264.211 132.857L263.932 132.883C263.419 132.932 262.938 133.064 262.489 133.279C262.041 133.51 261.611 133.848 261.199 134.295C260.789 134.757 260.489 135.397 260.301 136.214C260.114 137.046 260.073 138.014 260.178 139.116C260.269 140.079 260.435 140.917 260.676 141.631C260.931 142.343 261.186 142.875 261.439 143.227C261.692 143.579 261.993 143.863 262.343 144.081C262.692 144.298 262.939 144.423 263.084 144.457C263.228 144.49 263.387 144.522 263.563 144.552L264.215 151.4L263.842 151.435C263.314 151.485 262.763 151.459 262.19 151.357C261.631 151.254 260.978 150.972 260.229 150.51C259.495 150.047 258.825 149.422 258.217 148.634C257.626 147.859 257.08 146.729 256.578 145.241C256.077 143.769 255.732 142.039 255.543 140.051Z" fill="#E8AF5A"/>
<path d="M261.784 171.239L268.141 169.235L262.641 165.524L261.784 171.239ZM254.187 173.624L257.165 172.699L258.639 162.865L256.061 161.13L257.06 154.466L272.998 165.563L271.672 174.401L253.107 180.82L254.187 173.624Z" fill="#E8AF5A"/>
<path d="M249.449 190.102L261.214 194.773L263.985 187.792L268.399 189.545L260.405 209.681L255.991 207.929L258.762 200.948L246.998 196.278L249.449 190.102Z" fill="#E8AF5A"/>
<path d="M253.503 221.265L238.527 212.393L241.901 206.697L256.878 215.569L253.503 221.265Z" fill="#E8AF5A"/>
<path d="M242.1 237.302L241.413 238.1C240.406 239.27 239.407 240.263 238.417 241.078C237.429 241.915 236.525 242.546 235.706 242.972C234.887 243.421 234.081 243.724 233.285 243.883C232.491 244.064 231.783 244.134 231.161 244.092C230.538 244.05 229.931 243.918 229.339 243.697C228.738 243.488 228.233 243.249 227.826 242.981C227.409 242.724 226.999 242.423 226.597 242.077L226.065 241.619C225.663 241.273 225.305 240.913 224.989 240.538C224.663 240.176 224.346 239.707 224.038 239.133C223.731 238.581 223.505 237.995 223.359 237.375C223.215 236.778 223.167 236.068 223.216 235.246C223.266 234.424 223.44 233.576 223.74 232.702C224.039 231.828 224.53 230.84 225.21 229.738C225.869 228.638 226.707 227.497 227.725 226.315L228.412 225.517C229.43 224.335 230.438 223.331 231.438 222.504C232.416 221.679 233.32 221.047 234.15 220.609C234.97 220.183 235.783 219.885 236.588 219.714C237.394 219.543 238.108 219.478 238.731 219.52C239.355 219.584 239.968 219.721 240.57 219.93C241.173 220.162 241.683 220.406 242.101 220.662C242.508 220.93 242.912 221.237 243.314 221.583L243.846 222.041C244.248 222.387 244.612 222.742 244.938 223.104C245.253 223.479 245.564 223.942 245.871 224.495C246.168 225.059 246.388 225.639 246.532 226.237C246.666 226.846 246.703 227.557 246.642 228.369C246.593 229.191 246.412 230.034 246.101 230.898C245.791 231.784 245.301 232.771 244.63 233.861C243.961 234.973 243.118 236.12 242.1 237.302ZM230.713 236.544L230.961 236.757C231.351 237.093 231.772 237.333 232.226 237.476C232.69 237.629 233.23 237.672 233.844 237.604C234.448 237.547 235.13 237.27 235.889 236.771C236.648 236.272 237.424 235.561 238.218 234.639C239.032 233.693 239.63 232.808 240.011 231.983C240.391 231.159 240.565 230.443 240.53 229.838C240.496 229.232 240.369 228.71 240.148 228.274C239.929 227.859 239.624 227.483 239.234 227.147L239.022 226.964C238.631 226.628 238.198 226.379 237.721 226.215C237.256 226.062 236.71 226.003 236.082 226.039C235.466 226.085 234.773 226.353 234.002 226.842C233.221 227.342 232.434 228.054 231.64 228.976C230.846 229.898 230.259 230.771 229.878 231.596C229.499 232.443 229.333 233.174 229.379 233.79C229.425 234.406 229.558 234.932 229.779 235.369C230.011 235.816 230.323 236.208 230.713 236.544Z" fill="#E8AF5A"/>
<path d="M226.794 252.843L220.695 257.103L206.742 254.779L212.41 262.892L207.001 266.67L197.032 252.401L202.479 248.595L217.46 251.001L211.417 242.351L216.825 238.573L226.794 252.843Z" fill="#E8AF5A"/>
<path d="M106.809 44.1538H112.42V35.6982L119.723 39.926L122.49 35.0832L115.187 30.8554L122.49 26.6276L119.723 21.7848L112.42 26.0126V17.557H106.809V26.0126L99.4291 21.7848L96.6618 26.6276L103.964 30.8554L96.6618 35.0832L99.4291 39.926L106.809 35.6982V44.1538Z" fill="#E8AF5A"/>
<path d="M170.29 283.51H175.901V275.054L183.204 279.282L185.971 274.439L178.668 270.211L185.971 265.984L183.204 261.141L175.901 265.369V256.913H170.29V265.369L162.91 261.141L160.143 265.984L167.445 270.211L160.143 274.439L162.91 279.282L170.29 275.054V283.51Z" fill="#E8AF5A"/>
</svg>
